<?xml version="1.0" encoding="UTF-8"?>
<svg width="30px" height="19px" viewBox="0 0 30 19" version="1.1" xmlns="http://www.w3.org/2000/svg" xmlns:xlink="http://www.w3.org/1999/xlink">
    <!-- Generator: Sketch 46.2 (44496) - http://www.bohemiancoding.com/sketch -->
    <title>Fill 1</title>
    <desc>Created with Sketch.</desc>
    <defs></defs>
    <g id="Page-1" stroke="none" stroke-width="1" fill="none" fill-rule="evenodd">
        <g id="Group-25" fill="#FFFFFF">
            <path d="M8.39965703,14.9766263 C8.79943782,14.9766263 9.18075626,14.9412008 9.53864172,14.8634038 C9.90149782,14.7856067 10.2231687,14.6626596 10.4958433,14.4799755 C10.7670978,14.3049321 10.9929065,14.0652894 11.1562272,13.7603528 C11.320258,13.4575 11.3997881,13.0650417 11.3997881,12.589924 C11.3997881,11.6598325 11.1313741,10.9985576 10.5995165,10.5977639 C10.0655287,10.2025271 9.35472836,10.0059506 8.47989723,10.0059506 L4.06313615,10.0059506 L4.06313615,14.9766263 L8.39965703,14.9766263 Z M8.17526853,7.29208397 C8.89387981,7.29208397 9.49035559,7.12537601 9.96256557,6.78640316 C10.4298049,6.45298725 10.6563237,5.90215637 10.6563237,5.14502438 C10.6563237,4.7247814 10.5810541,4.37816777 10.4298049,4.10865657 C10.2735851,3.83914537 10.0655287,3.62798196 9.80421546,3.48002864 C9.54361235,3.32721301 9.24963501,3.22093669 8.9095018,3.16397814 C8.57433922,3.0993788 8.22426475,3.07437261 7.86424902,3.07437261 L4.06313615,3.07437261 L4.06313615,7.29208397 L8.17526853,7.29208397 Z M8.70002519,0 C9.58266731,0 10.3793885,0.0743239651 11.107231,0.228528827 C11.831523,0.37856599 12.4485914,0.630017162 12.9705077,0.973157711 C13.4853231,1.31768749 13.8879442,1.77405053 14.1762408,2.34988761 C14.4567265,2.91738928 14.5980344,3.62798196 14.5980344,4.4677733 C14.5980344,5.37702629 14.3878477,6.13554751 13.9653441,6.74264232 C13.5407101,7.34904253 12.9158307,7.84569332 12.0828949,8.23120548 C13.2176191,8.55072906 14.0597861,9.11336843 14.6172069,9.9121774 C15.177468,10.7172379 15.4522729,11.680671 15.4522729,12.8101174 C15.4522729,13.725622 15.2733302,14.5133171 14.9147347,15.1759812 C14.5532987,15.8476754 14.0612062,16.3908655 13.4547892,16.8111084 C12.8434015,17.2341299 12.1425425,17.5446235 11.3557626,17.7467569 C10.5782138,17.9488903 9.77155131,18.0509989 8.94358613,18.0509989 L0,18.0509989 L0,0 L8.70002519,0 Z M19.5842168,2.99178271 L27.0643071,2.99178271 L27.0643071,1.21078601 L19.5842168,1.21078601 L19.5842168,2.99178271 Z M25.4598582,8.04942434 C25.0238629,7.57708512 24.2860791,7.32146625 23.3842646,7.32146625 C22.7977301,7.32146625 22.3127385,7.41871256 21.9243191,7.61528903 C21.5430007,7.80908703 21.2326912,8.05081357 20.9941009,8.33491172 C20.7569308,8.62387218 20.5964504,8.93019806 20.5027185,9.25527858 C20.4089866,9.57410755 20.3521794,9.86237339 20.3351372,10.1172976 L26.3055757,10.1172976 C26.2182346,9.20179311 25.8979839,8.52523664 25.4598582,8.04942434 M21.2433426,14.9170976 C21.7929524,15.4422277 22.5875434,15.7054874 23.6171742,15.7054874 C24.3570882,15.7054874 24.9968794,15.5228032 25.5337076,15.1574349 C26.0655652,14.7934559 26.3893663,14.4030814 26.5136321,13.9988146 L29.7459627,13.9988146 C29.2268868,15.572121 28.4386866,16.6953159 27.3636101,17.3718723 C26.300605,18.0505126 25.0046904,18.3887909 23.4943286,18.3887909 C22.4419749,18.3887909 21.4947145,18.2227775 20.6447366,17.8942239 C19.7940485,17.5615026 19.0839583,17.095415 18.4867724,16.4883201 C17.9037884,15.8784469 17.452171,15.1574349 17.12979,14.3106974 C16.8102495,13.4681276 16.6504792,12.5359523 16.6504792,11.5252853 C16.6504792,10.5472653 16.8166403,9.63453918 17.1432818,8.78988552 C17.4763141,7.94384263 17.9371626,7.21310608 18.5435796,6.60045433 C19.1499967,5.9843295 19.8693181,5.49809795 20.7079346,5.1424543 C21.545841,4.78958912 22.4703785,4.61107268 23.4943286,4.61107268 C24.6247922,4.61107268 25.6146579,4.82362533 26.4632157,5.25706603 C27.3089331,5.68494979 28.0019812,6.26425994 28.5473304,6.99013418 C29.0905495,7.71322995 29.4789688,8.54121282 29.7211096,9.46991507 C29.9618301,10.3972281 30.0456208,11.3655235 29.976742,12.3796636 L20.3351372,12.3796636 C20.3351372,13.4132529 20.6916025,14.3919676 21.2433426,14.9170976" id="Fill-1"></path>
        </g>
    </g>
</svg>