<?xml version="1.0" encoding="UTF-8"?>
<svg width="30px" height="30px" viewBox="0 0 30 30" version="1.1" xmlns="http://www.w3.org/2000/svg" xmlns:xlink="http://www.w3.org/1999/xlink">
    <!-- Generator: Sketch 46.2 (44496) - http://www.bohemiancoding.com/sketch -->
    <title>Fill 1</title>
    <desc>Created with Sketch.</desc>
    <defs></defs>
    <g id="Page-1" stroke="none" stroke-width="1" fill="none" fill-rule="evenodd">
        <g id="Group-24" fill="#FFFFFF">
            <path d="M18.8895,14.46675 C18.7995,14.247 18.708,14.02725 18.6135,13.806 C18.34725,13.182 18.0615,12.5625 17.76375,11.95275 C22.50075,10.02075 24.648,7.27275 24.918,6.9075 C26.70225,9.08475 27.783,11.85825 27.8115,14.8785 C27.3885,14.78925 23.15325,13.93125 18.8895,14.46675 M22.15875,25.6065 C22.0275,24.82725 21.34575,21.08175 19.67025,16.48275 C23.685,15.8415 27.21225,16.8915 27.65025,17.03025 C27.0795,20.5905 25.0335,23.6655 22.15875,25.6065 M15,27.795 C12.03825,27.795 9.30825,26.7855 7.13625,25.0935 C7.3665,24.6225 9.96075,19.61775 17.187,17.103 L17.27175,17.0745 C19.071,21.7425 19.81425,25.65525 20.00475,26.77725 C18.46725,27.432 16.77525,27.795 15,27.795 M2.18775,14.99925 C2.18775,14.868 2.19075,14.7375 2.1945,14.60775 C2.75475,14.61975 8.964,14.7 15.36225,12.7875 C15.729,13.5045 16.07925,14.232 16.401,14.95875 C16.2315,15.00675 16.06275,15.057 15.89625,15.111 C9.288,17.244 5.772,23.058 5.48175,23.5545 C3.43575,21.2865 2.18775,18.28575 2.18775,14.99925 M9.5535,3.42 C9.891,3.88275 12.18075,7.05075 14.30325,10.8195 C8.31075,12.40875 3.0315,12.38625 2.4585,12.37875 C3.2895,8.40825 5.9685,5.1075 9.5535,3.42 M15,2.2035 C18.25575,2.2035 21.231,3.423 23.49375,5.42775 C23.2635,5.75625 21.3345,8.3445 16.77825,10.05 C14.679,6.198 12.35175,3.033 11.99775,2.55975 C12.9615,2.32725 13.9665,2.2035 15,2.2035 M15,0 C6.729,0 0,6.72 0,14.97975 C0,23.2395 6.729,29.9595 15,29.9595 C23.271,29.9595 30,23.2395 30,14.97975 C30,6.72 23.271,0 15,0" id="Fill-1"></path>
        </g>
    </g>
</svg>