<?xml version="1.0" encoding="UTF-8"?>
<svg width="26px" height="26px" viewBox="0 0 26 26" version="1.1" xmlns="http://www.w3.org/2000/svg" xmlns:xlink="http://www.w3.org/1999/xlink">
    <!-- Generator: Sketch 46.2 (44496) - http://www.bohemiancoding.com/sketch -->
    <title>Fill 1</title>
    <desc>Created with Sketch.</desc>
    <defs></defs>
    <g id="Page-1" stroke="none" stroke-width="1" fill="none" fill-rule="evenodd">
        <g id="Group-26" fill="#FEFEFE">
            <path d="M26,26 L20.6153204,26 L20.6153204,17.5541831 C20.6153204,15.5402778 20.5784874,12.9496713 17.8152568,12.9496713 C15.0116612,12.9496713 14.5812703,15.1435114 14.5812703,17.4086179 L14.5812703,26 L9.19759984,26 L9.19759984,8.63275199 L14.3655703,8.63275199 L14.3655703,11.0057688 L14.4377226,11.0057688 C15.1572272,9.64058914 16.9148669,8.2011106 19.5363158,8.2011106 C24.9926431,8.2011106 26,11.7982907 26,16.4740688 L26,26 Z M0.429179952,26 L0.429179952,8.6330047 L5.8181483,8.6330047 L5.8181483,26 L0.429179952,26 Z M3.12474893,6.25880016 C1.39763516,6.25880016 0,4.85647107 0,3.12864193 C0,1.40232908 1.39763516,0 3.12474893,0 C4.84757393,0 6.24747962,1.40232908 6.24747962,3.12864193 C6.24747962,4.85647107 4.84757393,6.25880016 3.12474893,6.25880016 Z" id="Fill-1"></path>
        </g>
    </g>
</svg>